Coordinates
version=1
nRows=11
nColumns=21
inDegrees=yes

Units are S.I. units (second, meters, Newtons, ...)
If the header above contains a line with 'inDegrees', this indicates whether rotational values are in degrees (yes) or radians (no).

endheader
time	sternoclavicular_r2	sternoclavicular_r3	unrotscap_r3	unrotscap_r2	acromioclavicular_r2	acromioclavicular_r3	acromioclavicular_r1	unrothum_r1	unrothum_r3	unrothum_r2	elv_angle	shoulder_elev	shoulder1_r2	shoulder_rot	elbow_flexion	pro_sup	deviation	flexion	wrist_hand_r1	wrist_hand_r3
      0.00000000	     -0.00204531	      0.00086630	     -0.00086630	      0.00204531	     -0.00041413	      0.00334688	      0.00150440	     -0.00150440	     -0.00334688	      0.00041413	     71.38835862	      0.00845168	    -71.38835862	     20.04577997	    129.99631607	      0.00000000	      0.00000000	     -0.00000000	     -0.00000000	      0.00000000
      0.10101010	     -0.00204406	      0.00086577	     -0.00086577	      0.00204406	     -0.00041388	      0.00334484	      0.00150348	     -0.00150348	     -0.00334484	      0.00041388	     70.83619191	      0.00844653	    -70.83619191	     20.04575877	    129.99631513	      0.00000000	      0.00000000	     -0.00000000	     -0.00000000	      0.00000000
      0.20202020	     -0.00204225	      0.00086500	     -0.00086500	      0.00204225	     -0.00041351	      0.00334187	      0.00150215	     -0.00150215	     -0.00334187	      0.00041351	     70.28433208	      0.00843902	    -70.28433208	     20.04573719	    129.99631399	      0.00000000	      0.00000000	     -0.00000000	     -0.00000000	      0.00000000
      0.30303030	     -0.00204069	      0.00086434	     -0.00086434	      0.00204069	     -0.00041320	      0.00333933	      0.00150101	     -0.00150101	     -0.00333933	      0.00041320	     69.73219895	      0.00843260	    -69.73219895	     20.04570996	    129.99631008	      0.00000000	      0.00000000	     -0.00000000	     -0.00000000	      0.00000000
      0.40404040	     -0.00203958	      0.00086387	     -0.00086387	      0.00203958	     -0.00041297	      0.00333750	      0.00150019	     -0.00150019	     -0.00333750	      0.00041297	     69.17869352	      0.00842799	    -69.17869352	     20.04567188	    129.99630074	      0.00000000	      0.00000000	     -0.00000000	     -0.00000000	      0.00000000
      0.50505051	     -0.00203911	      0.00086367	     -0.00086367	      0.00203911	     -0.00041288	      0.00333673	      0.00149984	     -0.00149984	     -0.00333673	      0.00041288	     68.62220464	      0.00842604	    -68.62220464	     20.04561792	    129.99628336	      0.00000000	      0.00000000	     -0.00000000	     -0.00000000	      0.00000000
      0.60606061	     -0.00203940	      0.00086379	     -0.00086379	      0.00203940	     -0.00041294	      0.00333721	      0.00150005	     -0.00150005	     -0.00333721	      0.00041294	     68.06060463	      0.00842725	    -68.06060463	     20.04554304	    129.99625532	      0.00000000	      0.00000000	     -0.00000000	     -0.00000000	      0.00000000
      0.70707071	     -0.00204038	      0.00086421	     -0.00086421	      0.00204038	     -0.00041314	      0.00333881	      0.00150077	     -0.00150077	     -0.00333881	      0.00041314	     67.49122840	      0.00843130	    -67.49122840	     20.04544209	    129.99621385	      0.00000000	      0.00000000	     -0.00000000	     -0.00000000	      0.00000000
      0.80808081	     -0.00204166	      0.00086475	     -0.00086475	      0.00204166	     -0.00041339	      0.00334091	      0.00150172	     -0.00150172	     -0.00334091	      0.00041339	     66.91083031	      0.00843660	    -66.91083031	     20.04530968	    129.99615585	      0.00000000	      0.00000000	     -0.00000000	     -0.00000000	      0.00000000
      0.90909091	     -0.00204249	      0.00086510	     -0.00086510	      0.00204249	     -0.00041356	      0.00334226	      0.00150232	     -0.00150232	     -0.00334226	      0.00041356	     66.31551089	      0.00844001	    -66.31551089	     20.04514002	    129.99607773	      0.00000000	      0.00000000	     -0.00000000	     -0.00000000	      0.00000000
      1.01010101	     -0.00204170	      0.00086477	     -0.00086477	      0.00204170	     -0.00041340	      0.00334097	      0.00150174	     -0.00150174	     -0.00334097	      0.00041340	     65.70060189	      0.00843675	    -65.70060189	     20.04492685	    129.99597510	      0.00000000	      0.00000000	     -0.00000000	     -0.00000000	      0.00000000
